<mxfile host="app.diagrams.net" agent="Mozilla/5.0 (X11; Ubuntu; Linux x86_64; rv:133.0) Gecko/20100101 Firefox/133.0" version="25.0.3" pages="2">
  <diagram id="C5RBs43oDa-KdzZeNtuy" name="Page-1">
    <mxGraphModel dx="679" dy="795" grid="1" gridSize="10" guides="1" tooltips="1" connect="1" arrows="1" fold="1" page="1" pageScale="1" pageWidth="827" pageHeight="1169" math="0" shadow="0">
      <root>
        <mxCell id="WIyWlLk6GJQsqaUBKTNV-0" />
        <mxCell id="WIyWlLk6GJQsqaUBKTNV-1" parent="WIyWlLk6GJQsqaUBKTNV-0" />
        <mxCell id="_A4C78QhjoVFTaDTlQbj-2" value="Creating a platform" style="swimlane;childLayout=stackLayout;resizeParent=1;resizeParentMax=0;startSize=30;horizontal=0;horizontalStack=1;fontSize=16;fillColor=#f5f5f5;fontColor=#333333;strokeColor=#666666;" parent="WIyWlLk6GJQsqaUBKTNV-1" vertex="1">
          <mxGeometry x="70" y="70" width="860" height="610" as="geometry" />
        </mxCell>
        <mxCell id="_A4C78QhjoVFTaDTlQbj-3" value="Front-end" style="swimlane;startSize=30;fontSize=16;" parent="_A4C78QhjoVFTaDTlQbj-2" vertex="1">
          <mxGeometry x="30" width="360" height="610" as="geometry" />
        </mxCell>
        <mxCell id="_A4C78QhjoVFTaDTlQbj-7" value="Dashboard page" style="rounded=0;whiteSpace=wrap;html=1;fontStyle=1" parent="_A4C78QhjoVFTaDTlQbj-3" vertex="1">
          <mxGeometry x="35" y="120" width="120" height="80" as="geometry" />
        </mxCell>
        <mxCell id="_A4C78QhjoVFTaDTlQbj-35" value="Create page" style="rounded=0;whiteSpace=wrap;html=1;fontStyle=1" parent="_A4C78QhjoVFTaDTlQbj-3" vertex="1">
          <mxGeometry x="35" y="240" width="120" height="80" as="geometry" />
        </mxCell>
        <mxCell id="_A4C78QhjoVFTaDTlQbj-45" value="Review page" style="rounded=0;whiteSpace=wrap;html=1;fontStyle=1" parent="_A4C78QhjoVFTaDTlQbj-3" vertex="1">
          <mxGeometry x="35" y="430" width="120" height="80" as="geometry" />
        </mxCell>
        <mxCell id="_A4C78QhjoVFTaDTlQbj-4" value="Back-end" style="swimlane;startSize=30;fontSize=16;" parent="_A4C78QhjoVFTaDTlQbj-2" vertex="1">
          <mxGeometry x="390" width="210" height="610" as="geometry">
            <mxRectangle x="140" width="40" height="610" as="alternateBounds" />
          </mxGeometry>
        </mxCell>
        <mxCell id="_A4C78QhjoVFTaDTlQbj-8" value="&lt;div&gt;Fetch API&lt;/div&gt;&lt;div&gt;&lt;br&gt;&lt;/div&gt;&lt;div&gt;&lt;i style=&quot;font-weight: normal;&quot;&gt;/api/templates&lt;/i&gt;&lt;/div&gt;" style="rounded=0;whiteSpace=wrap;html=1;fontStyle=1" parent="_A4C78QhjoVFTaDTlQbj-4" vertex="1">
          <mxGeometry x="50" y="120" width="120" height="80" as="geometry" />
        </mxCell>
        <mxCell id="_A4C78QhjoVFTaDTlQbj-36" value="&lt;div&gt;Configure API&lt;/div&gt;&lt;div&gt;&lt;br&gt;&lt;/div&gt;&lt;div&gt;&lt;i style=&quot;font-weight: normal;&quot;&gt;/api/templates&lt;/i&gt;&lt;i&gt;/{id}&lt;/i&gt;&lt;/div&gt;" style="rounded=0;whiteSpace=wrap;html=1;fontStyle=1" parent="_A4C78QhjoVFTaDTlQbj-4" vertex="1">
          <mxGeometry x="50" y="240" width="120" height="80" as="geometry" />
        </mxCell>
        <mxCell id="_A4C78QhjoVFTaDTlQbj-46" value="&lt;div&gt;Execute API&lt;/div&gt;&lt;div&gt;&lt;br&gt;&lt;/div&gt;&lt;div&gt;&lt;i style=&quot;font-weight: normal;&quot;&gt;/api/templates/&lt;b&gt;{id}&lt;/b&gt;&lt;/i&gt;&lt;/div&gt;" style="rounded=0;whiteSpace=wrap;html=1;fontStyle=1" parent="_A4C78QhjoVFTaDTlQbj-4" vertex="1">
          <mxGeometry x="45" y="430" width="120" height="80" as="geometry" />
        </mxCell>
        <mxCell id="_A4C78QhjoVFTaDTlQbj-5" value="Persistent (templates)" style="swimlane;startSize=30;fontSize=16;" parent="_A4C78QhjoVFTaDTlQbj-2" vertex="1">
          <mxGeometry x="600" width="260" height="610" as="geometry" />
        </mxCell>
        <mxCell id="_A4C78QhjoVFTaDTlQbj-18" value="&lt;b&gt;Template A&lt;br&gt;&lt;/b&gt;" style="swimlane;fontStyle=0;childLayout=stackLayout;horizontal=1;startSize=30;horizontalStack=0;resizeParent=1;resizeParentMax=0;resizeLast=0;collapsible=1;marginBottom=0;whiteSpace=wrap;html=1;" parent="_A4C78QhjoVFTaDTlQbj-5" vertex="1">
          <mxGeometry x="90" y="70" width="140" height="150" as="geometry" />
        </mxCell>
        <mxCell id="_A4C78QhjoVFTaDTlQbj-19" value="identity.json" style="text;strokeColor=#6c8ebf;fillColor=#dae8fc;align=left;verticalAlign=middle;spacingLeft=4;spacingRight=4;overflow=hidden;points=[[0,0.5],[1,0.5]];portConstraint=eastwest;rotatable=0;whiteSpace=wrap;html=1;" parent="_A4C78QhjoVFTaDTlQbj-18" vertex="1">
          <mxGeometry y="30" width="140" height="30" as="geometry" />
        </mxCell>
        <mxCell id="_A4C78QhjoVFTaDTlQbj-20" value="inputs.json" style="text;strokeColor=#d6b656;fillColor=#fff2cc;align=left;verticalAlign=middle;spacingLeft=4;spacingRight=4;overflow=hidden;points=[[0,0.5],[1,0.5]];portConstraint=eastwest;rotatable=0;whiteSpace=wrap;html=1;" parent="_A4C78QhjoVFTaDTlQbj-18" vertex="1">
          <mxGeometry y="60" width="140" height="30" as="geometry" />
        </mxCell>
        <mxCell id="_A4C78QhjoVFTaDTlQbj-21" value="outputs.json" style="text;strokeColor=#b85450;fillColor=#f8cecc;align=left;verticalAlign=middle;spacingLeft=4;spacingRight=4;overflow=hidden;points=[[0,0.5],[1,0.5]];portConstraint=eastwest;rotatable=0;whiteSpace=wrap;html=1;" parent="_A4C78QhjoVFTaDTlQbj-18" vertex="1">
          <mxGeometry y="90" width="140" height="30" as="geometry" />
        </mxCell>
        <mxCell id="_A4C78QhjoVFTaDTlQbj-50" value="&lt;i&gt;SOURCE CODE&lt;/i&gt;" style="text;strokeColor=#b85450;fillColor=#f8cecc;align=left;verticalAlign=middle;spacingLeft=4;spacingRight=4;overflow=hidden;points=[[0,0.5],[1,0.5]];portConstraint=eastwest;rotatable=0;whiteSpace=wrap;html=1;" parent="_A4C78QhjoVFTaDTlQbj-18" vertex="1">
          <mxGeometry y="120" width="140" height="30" as="geometry" />
        </mxCell>
        <mxCell id="_A4C78QhjoVFTaDTlQbj-23" value="&lt;b&gt;Template B&lt;br&gt;&lt;/b&gt;" style="swimlane;fontStyle=0;childLayout=stackLayout;horizontal=1;startSize=30;horizontalStack=0;resizeParent=1;resizeParentMax=0;resizeLast=0;collapsible=1;marginBottom=0;whiteSpace=wrap;html=1;" parent="_A4C78QhjoVFTaDTlQbj-5" vertex="1">
          <mxGeometry x="90" y="260" width="140" height="150" as="geometry" />
        </mxCell>
        <mxCell id="_A4C78QhjoVFTaDTlQbj-24" value="identity.json" style="text;strokeColor=#6c8ebf;fillColor=#dae8fc;align=left;verticalAlign=middle;spacingLeft=4;spacingRight=4;overflow=hidden;points=[[0,0.5],[1,0.5]];portConstraint=eastwest;rotatable=0;whiteSpace=wrap;html=1;" parent="_A4C78QhjoVFTaDTlQbj-23" vertex="1">
          <mxGeometry y="30" width="140" height="30" as="geometry" />
        </mxCell>
        <mxCell id="_A4C78QhjoVFTaDTlQbj-25" value="inputs.json" style="text;strokeColor=#d6b656;fillColor=#fff2cc;align=left;verticalAlign=middle;spacingLeft=4;spacingRight=4;overflow=hidden;points=[[0,0.5],[1,0.5]];portConstraint=eastwest;rotatable=0;whiteSpace=wrap;html=1;" parent="_A4C78QhjoVFTaDTlQbj-23" vertex="1">
          <mxGeometry y="60" width="140" height="30" as="geometry" />
        </mxCell>
        <mxCell id="_A4C78QhjoVFTaDTlQbj-26" value="outputs.json" style="text;strokeColor=#b85450;fillColor=#f8cecc;align=left;verticalAlign=middle;spacingLeft=4;spacingRight=4;overflow=hidden;points=[[0,0.5],[1,0.5]];portConstraint=eastwest;rotatable=0;whiteSpace=wrap;html=1;" parent="_A4C78QhjoVFTaDTlQbj-23" vertex="1">
          <mxGeometry y="90" width="140" height="30" as="geometry" />
        </mxCell>
        <mxCell id="_A4C78QhjoVFTaDTlQbj-52" value="&lt;i&gt;SOURCE CODE&lt;br&gt;&lt;/i&gt;" style="text;strokeColor=#b85450;fillColor=#f8cecc;align=left;verticalAlign=middle;spacingLeft=4;spacingRight=4;overflow=hidden;points=[[0,0.5],[1,0.5]];portConstraint=eastwest;rotatable=0;whiteSpace=wrap;html=1;" parent="_A4C78QhjoVFTaDTlQbj-23" vertex="1">
          <mxGeometry y="120" width="140" height="30" as="geometry" />
        </mxCell>
        <mxCell id="_A4C78QhjoVFTaDTlQbj-27" value="&lt;b&gt;Template C&lt;br&gt;&lt;/b&gt;" style="swimlane;fontStyle=0;childLayout=stackLayout;horizontal=1;startSize=30;horizontalStack=0;resizeParent=1;resizeParentMax=0;resizeLast=0;collapsible=1;marginBottom=0;whiteSpace=wrap;html=1;" parent="_A4C78QhjoVFTaDTlQbj-5" vertex="1">
          <mxGeometry x="90" y="450" width="140" height="150" as="geometry" />
        </mxCell>
        <mxCell id="_A4C78QhjoVFTaDTlQbj-28" value="identity.json" style="text;strokeColor=#6c8ebf;fillColor=#dae8fc;align=left;verticalAlign=middle;spacingLeft=4;spacingRight=4;overflow=hidden;points=[[0,0.5],[1,0.5]];portConstraint=eastwest;rotatable=0;whiteSpace=wrap;html=1;" parent="_A4C78QhjoVFTaDTlQbj-27" vertex="1">
          <mxGeometry y="30" width="140" height="30" as="geometry" />
        </mxCell>
        <mxCell id="_A4C78QhjoVFTaDTlQbj-29" value="inputs.json" style="text;strokeColor=#d6b656;fillColor=#fff2cc;align=left;verticalAlign=middle;spacingLeft=4;spacingRight=4;overflow=hidden;points=[[0,0.5],[1,0.5]];portConstraint=eastwest;rotatable=0;whiteSpace=wrap;html=1;" parent="_A4C78QhjoVFTaDTlQbj-27" vertex="1">
          <mxGeometry y="60" width="140" height="30" as="geometry" />
        </mxCell>
        <mxCell id="_A4C78QhjoVFTaDTlQbj-30" value="outputs.json" style="text;strokeColor=#b85450;fillColor=#f8cecc;align=left;verticalAlign=middle;spacingLeft=4;spacingRight=4;overflow=hidden;points=[[0,0.5],[1,0.5]];portConstraint=eastwest;rotatable=0;whiteSpace=wrap;html=1;" parent="_A4C78QhjoVFTaDTlQbj-27" vertex="1">
          <mxGeometry y="90" width="140" height="30" as="geometry" />
        </mxCell>
        <mxCell id="_A4C78QhjoVFTaDTlQbj-53" value="&lt;i&gt;SOURCE CODE&lt;br&gt;&lt;/i&gt;" style="text;strokeColor=#b85450;fillColor=#f8cecc;align=left;verticalAlign=middle;spacingLeft=4;spacingRight=4;overflow=hidden;points=[[0,0.5],[1,0.5]];portConstraint=eastwest;rotatable=0;whiteSpace=wrap;html=1;" parent="_A4C78QhjoVFTaDTlQbj-27" vertex="1">
          <mxGeometry y="120" width="140" height="30" as="geometry" />
        </mxCell>
        <mxCell id="_A4C78QhjoVFTaDTlQbj-9" style="edgeStyle=orthogonalEdgeStyle;rounded=0;orthogonalLoop=1;jettySize=auto;html=1;exitX=1;exitY=0.25;exitDx=0;exitDy=0;entryX=0;entryY=0.25;entryDx=0;entryDy=0;" parent="_A4C78QhjoVFTaDTlQbj-2" source="_A4C78QhjoVFTaDTlQbj-7" target="_A4C78QhjoVFTaDTlQbj-8" edge="1">
          <mxGeometry relative="1" as="geometry" />
        </mxCell>
        <mxCell id="_A4C78QhjoVFTaDTlQbj-11" value="&lt;div&gt;GET &lt;/div&gt;" style="edgeLabel;html=1;align=center;verticalAlign=middle;resizable=0;points=[];" parent="_A4C78QhjoVFTaDTlQbj-9" vertex="1" connectable="0">
          <mxGeometry x="-0.5294" relative="1" as="geometry">
            <mxPoint x="65" y="-10" as="offset" />
          </mxGeometry>
        </mxCell>
        <mxCell id="_A4C78QhjoVFTaDTlQbj-10" style="edgeStyle=orthogonalEdgeStyle;rounded=0;orthogonalLoop=1;jettySize=auto;html=1;exitX=0;exitY=0.75;exitDx=0;exitDy=0;entryX=1;entryY=0.75;entryDx=0;entryDy=0;" parent="_A4C78QhjoVFTaDTlQbj-2" source="_A4C78QhjoVFTaDTlQbj-8" target="_A4C78QhjoVFTaDTlQbj-7" edge="1">
          <mxGeometry relative="1" as="geometry" />
        </mxCell>
        <mxCell id="_A4C78QhjoVFTaDTlQbj-12" value="[identities]" style="edgeLabel;html=1;align=center;verticalAlign=middle;resizable=0;points=[];" parent="_A4C78QhjoVFTaDTlQbj-10" vertex="1" connectable="0">
          <mxGeometry x="-0.0353" relative="1" as="geometry">
            <mxPoint y="10" as="offset" />
          </mxGeometry>
        </mxCell>
        <mxCell id="_A4C78QhjoVFTaDTlQbj-22" style="edgeStyle=orthogonalEdgeStyle;rounded=0;orthogonalLoop=1;jettySize=auto;html=1;exitX=1;exitY=0.5;exitDx=0;exitDy=0;entryX=0;entryY=0.5;entryDx=0;entryDy=0;fillColor=#dae8fc;strokeColor=#6c8ebf;" parent="_A4C78QhjoVFTaDTlQbj-2" source="_A4C78QhjoVFTaDTlQbj-8" target="_A4C78QhjoVFTaDTlQbj-19" edge="1">
          <mxGeometry relative="1" as="geometry" />
        </mxCell>
        <mxCell id="_A4C78QhjoVFTaDTlQbj-33" style="edgeStyle=orthogonalEdgeStyle;rounded=0;orthogonalLoop=1;jettySize=auto;html=1;exitX=1;exitY=0.5;exitDx=0;exitDy=0;entryX=0;entryY=0.5;entryDx=0;entryDy=0;fillColor=#dae8fc;strokeColor=#6c8ebf;" parent="_A4C78QhjoVFTaDTlQbj-2" source="_A4C78QhjoVFTaDTlQbj-8" target="_A4C78QhjoVFTaDTlQbj-24" edge="1">
          <mxGeometry relative="1" as="geometry" />
        </mxCell>
        <mxCell id="_A4C78QhjoVFTaDTlQbj-34" style="edgeStyle=orthogonalEdgeStyle;rounded=0;orthogonalLoop=1;jettySize=auto;html=1;exitX=1;exitY=0.5;exitDx=0;exitDy=0;entryX=0;entryY=0.5;entryDx=0;entryDy=0;fillColor=#dae8fc;strokeColor=#6c8ebf;" parent="_A4C78QhjoVFTaDTlQbj-2" source="_A4C78QhjoVFTaDTlQbj-8" target="_A4C78QhjoVFTaDTlQbj-28" edge="1">
          <mxGeometry relative="1" as="geometry" />
        </mxCell>
        <mxCell id="_A4C78QhjoVFTaDTlQbj-37" style="edgeStyle=orthogonalEdgeStyle;rounded=0;orthogonalLoop=1;jettySize=auto;html=1;exitX=1;exitY=0.25;exitDx=0;exitDy=0;entryX=0;entryY=0.25;entryDx=0;entryDy=0;" parent="_A4C78QhjoVFTaDTlQbj-2" source="_A4C78QhjoVFTaDTlQbj-35" target="_A4C78QhjoVFTaDTlQbj-36" edge="1">
          <mxGeometry relative="1" as="geometry" />
        </mxCell>
        <mxCell id="_A4C78QhjoVFTaDTlQbj-38" value="GET" style="edgeLabel;html=1;align=center;verticalAlign=middle;resizable=0;points=[];" parent="_A4C78QhjoVFTaDTlQbj-37" vertex="1" connectable="0">
          <mxGeometry x="0.098" y="1" relative="1" as="geometry">
            <mxPoint x="-5" y="-9" as="offset" />
          </mxGeometry>
        </mxCell>
        <mxCell id="_A4C78QhjoVFTaDTlQbj-39" style="edgeStyle=orthogonalEdgeStyle;rounded=0;orthogonalLoop=1;jettySize=auto;html=1;exitX=1;exitY=0.5;exitDx=0;exitDy=0;entryX=0;entryY=0.5;entryDx=0;entryDy=0;fillColor=#fff2cc;strokeColor=#d6b656;" parent="_A4C78QhjoVFTaDTlQbj-2" source="_A4C78QhjoVFTaDTlQbj-36" target="_A4C78QhjoVFTaDTlQbj-20" edge="1">
          <mxGeometry relative="1" as="geometry">
            <Array as="points">
              <mxPoint x="650" y="280" />
              <mxPoint x="650" y="145" />
            </Array>
          </mxGeometry>
        </mxCell>
        <mxCell id="_A4C78QhjoVFTaDTlQbj-40" style="edgeStyle=orthogonalEdgeStyle;rounded=0;orthogonalLoop=1;jettySize=auto;html=1;exitX=1;exitY=0.5;exitDx=0;exitDy=0;entryX=0;entryY=0.5;entryDx=0;entryDy=0;fillColor=#fff2cc;strokeColor=#d6b656;" parent="_A4C78QhjoVFTaDTlQbj-2" source="_A4C78QhjoVFTaDTlQbj-36" target="_A4C78QhjoVFTaDTlQbj-25" edge="1">
          <mxGeometry relative="1" as="geometry">
            <Array as="points">
              <mxPoint x="650" y="280" />
              <mxPoint x="650" y="335" />
            </Array>
          </mxGeometry>
        </mxCell>
        <mxCell id="_A4C78QhjoVFTaDTlQbj-41" style="edgeStyle=orthogonalEdgeStyle;rounded=0;orthogonalLoop=1;jettySize=auto;html=1;exitX=1;exitY=0.5;exitDx=0;exitDy=0;entryX=0;entryY=0.5;entryDx=0;entryDy=0;fillColor=#fff2cc;strokeColor=#d6b656;" parent="_A4C78QhjoVFTaDTlQbj-2" source="_A4C78QhjoVFTaDTlQbj-36" target="_A4C78QhjoVFTaDTlQbj-29" edge="1">
          <mxGeometry relative="1" as="geometry">
            <Array as="points">
              <mxPoint x="650" y="280" />
              <mxPoint x="650" y="525" />
            </Array>
          </mxGeometry>
        </mxCell>
        <mxCell id="_A4C78QhjoVFTaDTlQbj-42" style="edgeStyle=orthogonalEdgeStyle;rounded=0;orthogonalLoop=1;jettySize=auto;html=1;exitX=0;exitY=0.75;exitDx=0;exitDy=0;entryX=1;entryY=0.75;entryDx=0;entryDy=0;" parent="_A4C78QhjoVFTaDTlQbj-2" source="_A4C78QhjoVFTaDTlQbj-36" target="_A4C78QhjoVFTaDTlQbj-35" edge="1">
          <mxGeometry relative="1" as="geometry" />
        </mxCell>
        <mxCell id="_A4C78QhjoVFTaDTlQbj-43" value="identity, [inputs schema]" style="edgeLabel;html=1;align=center;verticalAlign=middle;resizable=0;points=[];" parent="_A4C78QhjoVFTaDTlQbj-42" vertex="1" connectable="0">
          <mxGeometry x="0.0275" y="3" relative="1" as="geometry">
            <mxPoint x="11" y="7" as="offset" />
          </mxGeometry>
        </mxCell>
        <mxCell id="_A4C78QhjoVFTaDTlQbj-47" style="edgeStyle=orthogonalEdgeStyle;rounded=0;orthogonalLoop=1;jettySize=auto;html=1;exitX=1;exitY=0.25;exitDx=0;exitDy=0;entryX=0;entryY=0.25;entryDx=0;entryDy=0;" parent="_A4C78QhjoVFTaDTlQbj-2" source="_A4C78QhjoVFTaDTlQbj-45" target="_A4C78QhjoVFTaDTlQbj-46" edge="1">
          <mxGeometry relative="1" as="geometry" />
        </mxCell>
        <mxCell id="_A4C78QhjoVFTaDTlQbj-58" value="POST [inputs]" style="edgeLabel;html=1;align=center;verticalAlign=middle;resizable=0;points=[];" parent="_A4C78QhjoVFTaDTlQbj-47" vertex="1" connectable="0">
          <mxGeometry x="0.0152" y="4" relative="1" as="geometry">
            <mxPoint x="8" y="-6" as="offset" />
          </mxGeometry>
        </mxCell>
        <mxCell id="_A4C78QhjoVFTaDTlQbj-48" style="edgeStyle=orthogonalEdgeStyle;rounded=0;orthogonalLoop=1;jettySize=auto;html=1;exitX=0;exitY=0.75;exitDx=0;exitDy=0;entryX=1;entryY=0.75;entryDx=0;entryDy=0;" parent="_A4C78QhjoVFTaDTlQbj-2" source="_A4C78QhjoVFTaDTlQbj-46" target="_A4C78QhjoVFTaDTlQbj-45" edge="1">
          <mxGeometry relative="1" as="geometry" />
        </mxCell>
        <mxCell id="_A4C78QhjoVFTaDTlQbj-59" value="&lt;div&gt;&lt;br&gt;&lt;/div&gt;&lt;div&gt;&lt;br&gt;&lt;/div&gt;" style="edgeLabel;html=1;align=center;verticalAlign=middle;resizable=0;points=[];" parent="_A4C78QhjoVFTaDTlQbj-48" vertex="1" connectable="0">
          <mxGeometry x="0.0269" y="1" relative="1" as="geometry">
            <mxPoint as="offset" />
          </mxGeometry>
        </mxCell>
        <mxCell id="_A4C78QhjoVFTaDTlQbj-60" value="[outputs]" style="edgeLabel;html=1;align=center;verticalAlign=middle;resizable=0;points=[];" parent="_A4C78QhjoVFTaDTlQbj-48" vertex="1" connectable="0">
          <mxGeometry x="-0.0657" y="-1" relative="1" as="geometry">
            <mxPoint y="11" as="offset" />
          </mxGeometry>
        </mxCell>
        <mxCell id="_A4C78QhjoVFTaDTlQbj-49" style="edgeStyle=orthogonalEdgeStyle;rounded=0;orthogonalLoop=1;jettySize=auto;html=1;exitX=1;exitY=0.5;exitDx=0;exitDy=0;entryX=0;entryY=0.5;entryDx=0;entryDy=0;fillColor=#f8cecc;strokeColor=#b85450;" parent="_A4C78QhjoVFTaDTlQbj-2" source="_A4C78QhjoVFTaDTlQbj-46" target="_A4C78QhjoVFTaDTlQbj-21" edge="1">
          <mxGeometry relative="1" as="geometry">
            <Array as="points">
              <mxPoint x="670" y="470" />
              <mxPoint x="670" y="175" />
            </Array>
          </mxGeometry>
        </mxCell>
        <mxCell id="_A4C78QhjoVFTaDTlQbj-51" style="edgeStyle=orthogonalEdgeStyle;rounded=0;orthogonalLoop=1;jettySize=auto;html=1;exitX=1;exitY=0.5;exitDx=0;exitDy=0;entryX=0;entryY=0.5;entryDx=0;entryDy=0;fillColor=#f8cecc;strokeColor=#b85450;" parent="_A4C78QhjoVFTaDTlQbj-2" source="_A4C78QhjoVFTaDTlQbj-46" target="_A4C78QhjoVFTaDTlQbj-50" edge="1">
          <mxGeometry relative="1" as="geometry">
            <Array as="points">
              <mxPoint x="670" y="470" />
              <mxPoint x="670" y="205" />
            </Array>
          </mxGeometry>
        </mxCell>
        <mxCell id="_A4C78QhjoVFTaDTlQbj-54" style="edgeStyle=orthogonalEdgeStyle;rounded=0;orthogonalLoop=1;jettySize=auto;html=1;exitX=1;exitY=0.5;exitDx=0;exitDy=0;entryX=0;entryY=0.5;entryDx=0;entryDy=0;fillColor=#f8cecc;strokeColor=#b85450;" parent="_A4C78QhjoVFTaDTlQbj-2" source="_A4C78QhjoVFTaDTlQbj-46" target="_A4C78QhjoVFTaDTlQbj-26" edge="1">
          <mxGeometry relative="1" as="geometry">
            <Array as="points">
              <mxPoint x="670" y="470" />
              <mxPoint x="670" y="365" />
            </Array>
          </mxGeometry>
        </mxCell>
        <mxCell id="_A4C78QhjoVFTaDTlQbj-55" style="edgeStyle=orthogonalEdgeStyle;rounded=0;orthogonalLoop=1;jettySize=auto;html=1;exitX=1;exitY=0.5;exitDx=0;exitDy=0;entryX=0;entryY=0.5;entryDx=0;entryDy=0;fillColor=#f8cecc;strokeColor=#b85450;" parent="_A4C78QhjoVFTaDTlQbj-2" source="_A4C78QhjoVFTaDTlQbj-46" target="_A4C78QhjoVFTaDTlQbj-52" edge="1">
          <mxGeometry relative="1" as="geometry">
            <Array as="points">
              <mxPoint x="670" y="470" />
              <mxPoint x="670" y="395" />
            </Array>
          </mxGeometry>
        </mxCell>
        <mxCell id="_A4C78QhjoVFTaDTlQbj-56" style="edgeStyle=orthogonalEdgeStyle;rounded=0;orthogonalLoop=1;jettySize=auto;html=1;exitX=1;exitY=0.5;exitDx=0;exitDy=0;entryX=0;entryY=0.5;entryDx=0;entryDy=0;fillColor=#f8cecc;strokeColor=#b85450;" parent="_A4C78QhjoVFTaDTlQbj-2" source="_A4C78QhjoVFTaDTlQbj-46" target="_A4C78QhjoVFTaDTlQbj-30" edge="1">
          <mxGeometry relative="1" as="geometry">
            <Array as="points">
              <mxPoint x="670" y="470" />
              <mxPoint x="670" y="555" />
            </Array>
          </mxGeometry>
        </mxCell>
        <mxCell id="_A4C78QhjoVFTaDTlQbj-57" style="edgeStyle=orthogonalEdgeStyle;rounded=0;orthogonalLoop=1;jettySize=auto;html=1;exitX=1;exitY=0.5;exitDx=0;exitDy=0;entryX=0;entryY=0.5;entryDx=0;entryDy=0;fillColor=#f8cecc;strokeColor=#b85450;" parent="_A4C78QhjoVFTaDTlQbj-2" source="_A4C78QhjoVFTaDTlQbj-46" target="_A4C78QhjoVFTaDTlQbj-53" edge="1">
          <mxGeometry relative="1" as="geometry">
            <Array as="points">
              <mxPoint x="670" y="470" />
              <mxPoint x="670" y="585" />
            </Array>
          </mxGeometry>
        </mxCell>
      </root>
    </mxGraphModel>
  </diagram>
  <diagram id="_davItBRyQ06i8FEUlZ2" name="Page-2">
    <mxGraphModel dx="1364" dy="795" grid="1" gridSize="10" guides="1" tooltips="1" connect="1" arrows="1" fold="1" page="1" pageScale="1" pageWidth="850" pageHeight="1100" math="0" shadow="0">
      <root>
        <mxCell id="0" />
        <mxCell id="1" parent="0" />
        <mxCell id="5F68rmnqSY3Di1_A4mE_-1" value="Person" style="swimlane;fontStyle=2;align=center;verticalAlign=top;childLayout=stackLayout;horizontal=1;startSize=26;horizontalStack=0;resizeParent=1;resizeLast=0;collapsible=1;marginBottom=0;rounded=0;shadow=0;strokeWidth=1;" vertex="1" parent="1">
          <mxGeometry x="220" y="120" width="160" height="138" as="geometry">
            <mxRectangle x="230" y="140" width="160" height="26" as="alternateBounds" />
          </mxGeometry>
        </mxCell>
        <mxCell id="5F68rmnqSY3Di1_A4mE_-2" value="Name" style="text;align=left;verticalAlign=top;spacingLeft=4;spacingRight=4;overflow=hidden;rotatable=0;points=[[0,0.5],[1,0.5]];portConstraint=eastwest;" vertex="1" parent="5F68rmnqSY3Di1_A4mE_-1">
          <mxGeometry y="26" width="160" height="26" as="geometry" />
        </mxCell>
        <mxCell id="5F68rmnqSY3Di1_A4mE_-3" value="Phone Number" style="text;align=left;verticalAlign=top;spacingLeft=4;spacingRight=4;overflow=hidden;rotatable=0;points=[[0,0.5],[1,0.5]];portConstraint=eastwest;rounded=0;shadow=0;html=0;" vertex="1" parent="5F68rmnqSY3Di1_A4mE_-1">
          <mxGeometry y="52" width="160" height="26" as="geometry" />
        </mxCell>
        <mxCell id="5F68rmnqSY3Di1_A4mE_-4" value="Email Address" style="text;align=left;verticalAlign=top;spacingLeft=4;spacingRight=4;overflow=hidden;rotatable=0;points=[[0,0.5],[1,0.5]];portConstraint=eastwest;rounded=0;shadow=0;html=0;" vertex="1" parent="5F68rmnqSY3Di1_A4mE_-1">
          <mxGeometry y="78" width="160" height="26" as="geometry" />
        </mxCell>
        <mxCell id="5F68rmnqSY3Di1_A4mE_-5" value="" style="line;html=1;strokeWidth=1;align=left;verticalAlign=middle;spacingTop=-1;spacingLeft=3;spacingRight=3;rotatable=0;labelPosition=right;points=[];portConstraint=eastwest;" vertex="1" parent="5F68rmnqSY3Di1_A4mE_-1">
          <mxGeometry y="104" width="160" height="8" as="geometry" />
        </mxCell>
        <mxCell id="5F68rmnqSY3Di1_A4mE_-6" value="Purchase Parking Pass" style="text;align=left;verticalAlign=top;spacingLeft=4;spacingRight=4;overflow=hidden;rotatable=0;points=[[0,0.5],[1,0.5]];portConstraint=eastwest;" vertex="1" parent="5F68rmnqSY3Di1_A4mE_-1">
          <mxGeometry y="112" width="160" height="26" as="geometry" />
        </mxCell>
        <mxCell id="5F68rmnqSY3Di1_A4mE_-7" value="Student" style="swimlane;fontStyle=0;align=center;verticalAlign=top;childLayout=stackLayout;horizontal=1;startSize=26;horizontalStack=0;resizeParent=1;resizeLast=0;collapsible=1;marginBottom=0;rounded=0;shadow=0;strokeWidth=1;" vertex="1" parent="1">
          <mxGeometry x="120" y="360" width="160" height="138" as="geometry">
            <mxRectangle x="130" y="380" width="160" height="26" as="alternateBounds" />
          </mxGeometry>
        </mxCell>
        <mxCell id="5F68rmnqSY3Di1_A4mE_-8" value="Student Number" style="text;align=left;verticalAlign=top;spacingLeft=4;spacingRight=4;overflow=hidden;rotatable=0;points=[[0,0.5],[1,0.5]];portConstraint=eastwest;" vertex="1" parent="5F68rmnqSY3Di1_A4mE_-7">
          <mxGeometry y="26" width="160" height="26" as="geometry" />
        </mxCell>
        <mxCell id="5F68rmnqSY3Di1_A4mE_-9" value="Average Mark" style="text;align=left;verticalAlign=top;spacingLeft=4;spacingRight=4;overflow=hidden;rotatable=0;points=[[0,0.5],[1,0.5]];portConstraint=eastwest;rounded=0;shadow=0;html=0;" vertex="1" parent="5F68rmnqSY3Di1_A4mE_-7">
          <mxGeometry y="52" width="160" height="26" as="geometry" />
        </mxCell>
        <mxCell id="5F68rmnqSY3Di1_A4mE_-10" value="" style="line;html=1;strokeWidth=1;align=left;verticalAlign=middle;spacingTop=-1;spacingLeft=3;spacingRight=3;rotatable=0;labelPosition=right;points=[];portConstraint=eastwest;" vertex="1" parent="5F68rmnqSY3Di1_A4mE_-7">
          <mxGeometry y="78" width="160" height="8" as="geometry" />
        </mxCell>
        <mxCell id="5F68rmnqSY3Di1_A4mE_-11" value="Is Eligible To Enroll" style="text;align=left;verticalAlign=top;spacingLeft=4;spacingRight=4;overflow=hidden;rotatable=0;points=[[0,0.5],[1,0.5]];portConstraint=eastwest;fontStyle=4" vertex="1" parent="5F68rmnqSY3Di1_A4mE_-7">
          <mxGeometry y="86" width="160" height="26" as="geometry" />
        </mxCell>
        <mxCell id="5F68rmnqSY3Di1_A4mE_-12" value="Get Seminars Taken" style="text;align=left;verticalAlign=top;spacingLeft=4;spacingRight=4;overflow=hidden;rotatable=0;points=[[0,0.5],[1,0.5]];portConstraint=eastwest;" vertex="1" parent="5F68rmnqSY3Di1_A4mE_-7">
          <mxGeometry y="112" width="160" height="26" as="geometry" />
        </mxCell>
        <mxCell id="5F68rmnqSY3Di1_A4mE_-13" value="" style="endArrow=block;endSize=10;endFill=0;shadow=0;strokeWidth=1;rounded=0;curved=0;edgeStyle=elbowEdgeStyle;elbow=vertical;" edge="1" parent="1" source="5F68rmnqSY3Di1_A4mE_-7" target="5F68rmnqSY3Di1_A4mE_-1">
          <mxGeometry width="160" relative="1" as="geometry">
            <mxPoint x="200" y="203" as="sourcePoint" />
            <mxPoint x="200" y="203" as="targetPoint" />
          </mxGeometry>
        </mxCell>
        <mxCell id="5F68rmnqSY3Di1_A4mE_-14" value="Professor" style="swimlane;fontStyle=0;align=center;verticalAlign=top;childLayout=stackLayout;horizontal=1;startSize=26;horizontalStack=0;resizeParent=1;resizeLast=0;collapsible=1;marginBottom=0;rounded=0;shadow=0;strokeWidth=1;" vertex="1" parent="1">
          <mxGeometry x="330" y="360" width="160" height="70" as="geometry">
            <mxRectangle x="340" y="380" width="170" height="26" as="alternateBounds" />
          </mxGeometry>
        </mxCell>
        <mxCell id="5F68rmnqSY3Di1_A4mE_-15" value="Salary" style="text;align=left;verticalAlign=top;spacingLeft=4;spacingRight=4;overflow=hidden;rotatable=0;points=[[0,0.5],[1,0.5]];portConstraint=eastwest;" vertex="1" parent="5F68rmnqSY3Di1_A4mE_-14">
          <mxGeometry y="26" width="160" height="26" as="geometry" />
        </mxCell>
        <mxCell id="5F68rmnqSY3Di1_A4mE_-16" value="" style="line;html=1;strokeWidth=1;align=left;verticalAlign=middle;spacingTop=-1;spacingLeft=3;spacingRight=3;rotatable=0;labelPosition=right;points=[];portConstraint=eastwest;" vertex="1" parent="5F68rmnqSY3Di1_A4mE_-14">
          <mxGeometry y="52" width="160" height="8" as="geometry" />
        </mxCell>
        <mxCell id="5F68rmnqSY3Di1_A4mE_-17" value="" style="endArrow=block;endSize=10;endFill=0;shadow=0;strokeWidth=1;rounded=0;curved=0;edgeStyle=elbowEdgeStyle;elbow=vertical;" edge="1" parent="1" source="5F68rmnqSY3Di1_A4mE_-14" target="5F68rmnqSY3Di1_A4mE_-1">
          <mxGeometry width="160" relative="1" as="geometry">
            <mxPoint x="210" y="373" as="sourcePoint" />
            <mxPoint x="310" y="271" as="targetPoint" />
          </mxGeometry>
        </mxCell>
        <mxCell id="5F68rmnqSY3Di1_A4mE_-18" value="Address" style="swimlane;fontStyle=0;align=center;verticalAlign=top;childLayout=stackLayout;horizontal=1;startSize=26;horizontalStack=0;resizeParent=1;resizeLast=0;collapsible=1;marginBottom=0;rounded=0;shadow=0;strokeWidth=1;" vertex="1" parent="1">
          <mxGeometry x="508" y="120" width="160" height="216" as="geometry">
            <mxRectangle x="550" y="140" width="160" height="26" as="alternateBounds" />
          </mxGeometry>
        </mxCell>
        <mxCell id="5F68rmnqSY3Di1_A4mE_-19" value="Street" style="text;align=left;verticalAlign=top;spacingLeft=4;spacingRight=4;overflow=hidden;rotatable=0;points=[[0,0.5],[1,0.5]];portConstraint=eastwest;" vertex="1" parent="5F68rmnqSY3Di1_A4mE_-18">
          <mxGeometry y="26" width="160" height="26" as="geometry" />
        </mxCell>
        <mxCell id="5F68rmnqSY3Di1_A4mE_-20" value="City" style="text;align=left;verticalAlign=top;spacingLeft=4;spacingRight=4;overflow=hidden;rotatable=0;points=[[0,0.5],[1,0.5]];portConstraint=eastwest;rounded=0;shadow=0;html=0;" vertex="1" parent="5F68rmnqSY3Di1_A4mE_-18">
          <mxGeometry y="52" width="160" height="26" as="geometry" />
        </mxCell>
        <mxCell id="5F68rmnqSY3Di1_A4mE_-21" value="State" style="text;align=left;verticalAlign=top;spacingLeft=4;spacingRight=4;overflow=hidden;rotatable=0;points=[[0,0.5],[1,0.5]];portConstraint=eastwest;rounded=0;shadow=0;html=0;" vertex="1" parent="5F68rmnqSY3Di1_A4mE_-18">
          <mxGeometry y="78" width="160" height="26" as="geometry" />
        </mxCell>
        <mxCell id="5F68rmnqSY3Di1_A4mE_-22" value="Postal Code" style="text;align=left;verticalAlign=top;spacingLeft=4;spacingRight=4;overflow=hidden;rotatable=0;points=[[0,0.5],[1,0.5]];portConstraint=eastwest;rounded=0;shadow=0;html=0;" vertex="1" parent="5F68rmnqSY3Di1_A4mE_-18">
          <mxGeometry y="104" width="160" height="26" as="geometry" />
        </mxCell>
        <mxCell id="5F68rmnqSY3Di1_A4mE_-23" value="Country" style="text;align=left;verticalAlign=top;spacingLeft=4;spacingRight=4;overflow=hidden;rotatable=0;points=[[0,0.5],[1,0.5]];portConstraint=eastwest;rounded=0;shadow=0;html=0;" vertex="1" parent="5F68rmnqSY3Di1_A4mE_-18">
          <mxGeometry y="130" width="160" height="26" as="geometry" />
        </mxCell>
        <mxCell id="5F68rmnqSY3Di1_A4mE_-24" value="" style="line;html=1;strokeWidth=1;align=left;verticalAlign=middle;spacingTop=-1;spacingLeft=3;spacingRight=3;rotatable=0;labelPosition=right;points=[];portConstraint=eastwest;" vertex="1" parent="5F68rmnqSY3Di1_A4mE_-18">
          <mxGeometry y="156" width="160" height="8" as="geometry" />
        </mxCell>
        <mxCell id="5F68rmnqSY3Di1_A4mE_-25" value="Validate" style="text;align=left;verticalAlign=top;spacingLeft=4;spacingRight=4;overflow=hidden;rotatable=0;points=[[0,0.5],[1,0.5]];portConstraint=eastwest;" vertex="1" parent="5F68rmnqSY3Di1_A4mE_-18">
          <mxGeometry y="164" width="160" height="26" as="geometry" />
        </mxCell>
        <mxCell id="5F68rmnqSY3Di1_A4mE_-26" value="Output As Label" style="text;align=left;verticalAlign=top;spacingLeft=4;spacingRight=4;overflow=hidden;rotatable=0;points=[[0,0.5],[1,0.5]];portConstraint=eastwest;" vertex="1" parent="5F68rmnqSY3Di1_A4mE_-18">
          <mxGeometry y="190" width="160" height="26" as="geometry" />
        </mxCell>
        <mxCell id="5F68rmnqSY3Di1_A4mE_-27" value="" style="endArrow=open;shadow=0;strokeWidth=1;rounded=0;curved=0;endFill=1;edgeStyle=elbowEdgeStyle;elbow=vertical;" edge="1" parent="1" source="5F68rmnqSY3Di1_A4mE_-1" target="5F68rmnqSY3Di1_A4mE_-18">
          <mxGeometry x="0.5" y="41" relative="1" as="geometry">
            <mxPoint x="380" y="192" as="sourcePoint" />
            <mxPoint x="540" y="192" as="targetPoint" />
            <mxPoint x="-40" y="32" as="offset" />
          </mxGeometry>
        </mxCell>
        <mxCell id="5F68rmnqSY3Di1_A4mE_-28" value="0..1" style="resizable=0;align=left;verticalAlign=bottom;labelBackgroundColor=none;fontSize=12;" connectable="0" vertex="1" parent="5F68rmnqSY3Di1_A4mE_-27">
          <mxGeometry x="-1" relative="1" as="geometry">
            <mxPoint y="4" as="offset" />
          </mxGeometry>
        </mxCell>
        <mxCell id="5F68rmnqSY3Di1_A4mE_-29" value="1" style="resizable=0;align=right;verticalAlign=bottom;labelBackgroundColor=none;fontSize=12;" connectable="0" vertex="1" parent="5F68rmnqSY3Di1_A4mE_-27">
          <mxGeometry x="1" relative="1" as="geometry">
            <mxPoint x="-7" y="4" as="offset" />
          </mxGeometry>
        </mxCell>
        <mxCell id="5F68rmnqSY3Di1_A4mE_-30" value="lives at" style="text;html=1;resizable=0;points=[];;align=center;verticalAlign=middle;labelBackgroundColor=none;rounded=0;shadow=0;strokeWidth=1;fontSize=12;" vertex="1" connectable="0" parent="5F68rmnqSY3Di1_A4mE_-27">
          <mxGeometry x="0.5" y="49" relative="1" as="geometry">
            <mxPoint x="-38" y="40" as="offset" />
          </mxGeometry>
        </mxCell>
      </root>
    </mxGraphModel>
  </diagram>
</mxfile>
